<svg
width="311.4"
height="176.907"
className="css-1j8o68f"
viewBox="0 0 350 198.835"
>
<path
  xmlns="http://www.w3.org/2000/svg"
  fill="none"
  stroke="#fff"
  strokeLinecap="round"
  strokeLinejoin="round"
  strokeWidth="19.509"
  d="M151.896 2.154c0 8.78 47.798-7.804 47.798 0 0 18.534-91.695 38.044-91.695 58.529 0 24.386 134.616-20.485 134.616 0 0 23.411-107.302 39.019-107.302 59.504 0 13.656 79.013-14.633 79.013 0"
  className="st0"
></path>
<path
  fill="#fff"
  d="M46.063 144.333l-10.85 33.31h-3.616l-8.565-23.888-8.566 23.889h-3.617L0 144.333h5.473l7.376 22.842 8.232-22.842h3.903l8.232 22.842 7.376-22.842h5.472zm15.894 8.137c5.616 0 13.23 4.283 12.04 14.657H54.296c.761 4.426 4.283 6.614 8.28 6.614 3.283 0 5.044-.856 6.852-2.284l2.903 2.76c-2.189 2.475-5.33 3.902-9.898 3.902-6.281 0-13.276-4.282-13.276-12.8 0-8.566 7.185-12.849 12.8-12.849zm0 4.426c-3.188 0-6.757 2.141-7.614 6.472h15.133c-.571-4.33-4.33-6.472-7.519-6.472zm39.307-12.563h5.234v33.31h-3.997l-18.606-23.745v23.746H78.66v-33.311h4.045l18.559 23.793v-23.793zm22.08 8.137c4.473 0 7.424 2.665 8.042 4.283V152.9h5.14v24.745h-5.14v-4.093c-.618 1.999-3.569 4.568-8.042 4.568-5.615 0-12.325-4.187-12.325-12.848 0-8.518 6.71-12.8 12.325-12.8zm.666 4.569c-3.854 0-7.994 2.76-7.994 8.232 0 5.52 4.14 8.28 7.994 8.28s7.614-2.712 7.614-8.28c0-5.52-3.76-8.232-7.614-8.232zm30.36.142h-5.234v13.848c0 1.332.476 2.38 1.999 2.38 1.284 0 2.189-.239 3.236-.667v4.33c-1.047.524-2.427.857-4.569.857-3.093 0-5.805-1.237-5.805-6.71v-14.038h-3.427V152.9h3.427v-5.806h5.139v5.806h5.235v4.282zm13.23 20.843c-4.76 0-9.423-3.093-9.423-10.802V152.9h5.14v14.038c0 4.71 2.236 6.567 5.425 6.567 4.092 0 6.757-3.807 7.328-6.234V152.9h5.14v24.745h-5.14v-5.235c-.476 1.523-3.331 5.615-8.47 5.615zm32.882-25.506c.523 0 1 0 1.475.095v4.901c-.476-.095-.952-.095-1.332-.095-4.664 0-8.47 3.331-9.042 8.566v11.659h-5.14v-24.745h5.14v6.329c1.047-3.665 4.235-6.71 8.899-6.71zm17.37-.048c5.614 0 13.228 4.283 12.038 14.657h-19.7c.761 4.426 4.282 6.614 8.28 6.614 3.283 0 5.044-.856 6.852-2.284l2.903 2.76c-2.19 2.475-5.33 3.902-9.898 3.902-6.282 0-13.277-4.282-13.277-12.8 0-8.566 7.186-12.849 12.801-12.849zm0 4.426c-3.19 0-6.758 2.141-7.615 6.472h15.133c-.571-4.33-4.33-6.472-7.519-6.472zm52.963-12.563v4.854h-8.851v28.457h-5.235v-28.457h-8.85v-4.854h22.936zm15.894 8.137c4.473 0 7.423 2.665 8.042 4.283V152.9h5.14v24.745h-5.14v-4.093c-.619 1.999-3.569 4.568-8.042 4.568-5.615 0-12.325-4.187-12.325-12.848 0-8.518 6.71-12.8 12.325-12.8zm.666 4.569c-3.854 0-7.994 2.76-7.994 8.232 0 5.52 4.14 8.28 7.994 8.28s7.614-2.712 7.614-8.28c0-5.52-3.76-8.232-7.614-8.232zm29.694 2.474c-.856-1.903-2.236-2.903-4.092-2.903-1.904 0-3.331 1.142-3.331 2.713 0 1.427.809 2.427 2.807 3.14l2.713.952c3.902 1.38 7.138 2.855 7.138 7.376 0 4.806-4.711 7.376-9.28 7.376-4.378 0-8.375-2.522-9.327-6.757l4.093-1.237c.714 2.236 2.57 3.854 5.234 3.854 2.19 0 4.188-1.285 4.188-3.236 0-1.57-1.095-2.522-3.188-3.283l-2.808-1c-4.568-1.618-6.567-4.092-6.567-7.233 0-4.14 3.712-6.805 8.137-6.805 4.283 0 7.233 2.332 8.566 5.853zm26.934 18.13l-9.708-10.564-2.807 2.903v7.662h-5.14V144h5.14v19.7l10.088-10.801h6.186L337.484 163.7l12.515 13.943h-5.996zM67.59 192.828c1.18.298 2.196 1.315 2.196 2.735 0 1.898-1.195 3.048-3.81 3.048H62V188.15h3.81c2.153 0 3.229 1.21 3.229 2.6 0 1.091-.687 1.764-1.45 2.078zm-1.944-2.96h-1.688v2.377h1.688c.987 0 1.45-.494 1.45-1.196 0-.747-.493-1.18-1.45-1.18zm.24 7.025c1.33 0 1.942-.553 1.942-1.555 0-.866-.612-1.51-2.002-1.51h-1.868v3.065h1.928zm25.093-8.743l-3.96 5.918v4.543H85.06v-4.543l-3.96-5.918h2.212l2.72 4.14 2.72-4.14h2.227zm28.47 8.653h4.245v1.808h-6.202V188.15h1.958v8.653zM140.718 188c2.87 0 5.41 2.212 5.41 5.38s-2.54 5.38-5.41 5.38-5.41-2.211-5.41-5.38 2.54-5.38 5.41-5.38zm0 8.923c1.823 0 3.363-1.48 3.363-3.542s-1.54-3.543-3.363-3.543c-1.838 0-3.378 1.48-3.378 3.543s1.54 3.542 3.378 3.542zm27.186-3.812c.403 3.483-1.883 5.65-4.678 5.65-2.93 0-5.41-2.212-5.41-5.38s2.54-5.38 5.41-5.38c1.36 0 2.585.448 3.497 1.24l-1.18 1.345a3.74 3.74 0 00-2.198-.748c-1.957 0-3.497 1.48-3.497 3.543s1.495 3.542 3.378 3.542c1.494 0 2.556-.598 2.87-2.138h-2.601v-1.674h4.409zm18.89-4.961h1.959v10.461h-1.495l-5.455-6.89v6.89h-1.958V188.15h1.51l5.44 6.904v-6.904zm22.479 10.461l-.867-2.017h-5.171l-.867 2.017h-2.077l4.662-10.461h1.75l4.647 10.461h-2.077zm-5.35-3.616h3.795l-1.898-4.424zm25.99-6.845v1.808h-2.69v8.653h-1.959v-8.653h-2.675v-1.808h7.323zm17.844 0h1.958v6.665c0 2.541-1.808 4.02-3.976 4.02-2.182 0-3.99-1.479-3.99-4.02v-6.665h1.958v6.665c0 1.644 1.046 2.182 2.032 2.182s2.018-.538 2.018-2.182v-6.665zm22.194 10.461h-2.077l-2.332-3.557h-1.734v3.557h-1.957V188.15h3.601c2.347 0 3.826 1.434 3.826 3.512 0 1.45-.717 2.526-1.942 3.049zm-6.143-8.653v3.408h1.54c1.18 0 1.973-.509 1.973-1.704 0-1.18-.792-1.704-1.973-1.704h-1.54zm19.788 6.845h4.559v1.808h-6.517V188.15h6.382v1.808h-4.424v2.51h3.363v1.764h-3.363v2.571z"
></path>
</svg>